<?xml version="1.0" encoding="UTF-8" standalone="no"?>
<svg xmlns="http://www.w3.org/2000/svg" width="150" height="31" viewBox="0 0 150 31">
  <rect x="1" y="1" width="14" height="14" fill="#f25022"/>
  <rect x="1" y="16" width="14" height="14" fill="#00a4ef"/>
  <rect x="16" y="1" width="14" height="14" fill="#7fba00"/>
  <rect x="16" y="16" width="14" height="14" fill="#ffb900"/>
  <path d="M43.812 8.123h-6.698v14.043h2.04V16.51h4.657c2.545 0 5.12-1.33 5.12-4.193.002-2.863-2.574-4.193-5.12-4.193zm.18 6.394h-4.837v-4.4h4.838c1.637 0 3.109.968 3.109 2.2 0 1.207-1.472 2.2-3.11 2.2zM53.868 8.123h-3.128v14.043h3.128V8.123zM72.063 8.123h-2.905v9.908c0 1.13-1.28 2.177-2.733 2.177-1.452 0-2.476-1.047-2.476-2.177V8.123h-2.904v9.908c0 2.846 2.347 4.926 5.38 4.926 3.03 0 5.638-2.08 5.638-4.926V8.123z" fill="#737373"/>
  <path d="M76.047 22.166h2.904V8.123h-2.904v14.043zM93.324 8.123H86.11v14.043h2.904V19.16h4.309c2.547 0 5.12-1.684 5.12-5.518s-2.573-5.518-5.12-5.518zm-.258 8.87h-4.052v-6.875h4.052c1.856 0 2.693 1.542 2.693 3.439 0 1.874-.837 3.437-2.693 3.437zM107.372 8.123h-6.698v14.043h2.04V16.51h4.657c2.545 0 5.12-1.33 5.12-4.193.002-2.863-2.575-4.193-5.12-4.193zm.18 6.394h-4.837v-4.4h4.838c1.638 0 3.109.968 3.109 2.2 0 1.207-1.471 2.2-3.11 2.2zM123.856 18.59c0-2.467-1.805-3.514-3.713-4.137-1.856-.6-3.572-1.105-3.572-2.096 0-.899.858-1.385 1.804-1.385 1.494 0 3.248.646 4.742 1.847l1.484-1.963c-1.602-1.4-3.677-2.22-6.141-2.22-2.175 0-4.872 1.194-4.872 3.953 0 2.467 2.027 3.561 3.805 4.137 1.935.6 3.498 1.06 3.498 2.214 0 1.025-.935 1.661-2.255 1.661-1.752 0-3.828-.9-5.337-2.326l-1.687 1.9c1.984 1.939 4.592 2.9 6.938 2.9 2.823 0 5.306-1.386 5.306-4.485z" fill="#737373"/>
  <path d="M139.663 18.966c-.622.508-1.83 1.38-3.572 1.38-2.41 0-4.311-1.753-4.311-4.335 0-2.56 1.9-4.313 4.311-4.313 1.729 0 2.95.852 3.573 1.37l.055-.074 1.773-1.756c-1.19-1.207-3.03-2.096-5.401-2.096-4.327 0-7.301 3.252-7.301 6.87 0 3.628 2.989 6.857 7.301 6.857 2.45 0 4.276-.922 5.444-2.14l-1.818-1.763-.054.001z" fill="#737373"/>
</svg>
