<?xml version="1.0" encoding="UTF-8" standalone="no"?>
<svg xmlns="http://www.w3.org/2000/svg" width="126" height="32" viewBox="0 0 126 32">
  <g fill="none">
    <path fill="#E01E5A" d="M28.17 20.25a3.28 3.28 0 01-3.28 3.28 3.28 3.28 0 01-3.28-3.28 3.28 3.28 0 013.28-3.28h3.28v3.28z"/>
    <path fill="#E01E5A" d="M31.45 20.25a3.28 3.28 0 013.28-3.28 3.28 3.28 0 013.28 3.28v8.21a3.28 3.28 0 01-3.28 3.28 3.28 3.28 0 01-3.28-3.28v-8.21z"/>
    <path fill="#36C5F0" d="M34.73 11.75a3.28 3.28 0 01-3.28-3.28A3.28 3.28 0 0134.73 5.18a3.28 3.28 0 013.28 3.28v3.28h-3.28z"/>
    <path fill="#36C5F0" d="M34.73 8.47a3.28 3.28 0 013.28-3.28 3.28 3.28 0 013.28 3.28v8.21a3.28 3.28 0 01-3.28 3.28 3.28 3.28 0 01-3.28-3.28V8.47z"/>
    <path fill="#2EB67D" d="M43.24 11.75a3.28 3.28 0 013.28 3.28 3.28 3.28 0 01-3.28 3.28h-8.2a3.28 3.28 0 01-3.29-3.28 3.28 3.28 0 013.28-3.28h8.21z"/>
    <path fill="#2EB67D" d="M57.01 15.03a3.28 3.28 0 01-3.28 3.28 3.28 3.28 0 01-3.28-3.28v-3.28h3.28a3.28 3.28 0 013.28 3.28z"/>
    <path fill="#ECB22E" d="M43.23 18.31a3.28 3.28 0 01-3.28 3.28 3.28 3.28 0 01-3.28-3.28V10.1a3.28 3.28 0 013.28-3.28 3.28 3.28 0 013.28 3.28v8.21z"/>
    <path fill="#ECB22E" d="M43.23 15.03a3.28 3.28 0 013.28 3.28 3.28 3.28 0 01-3.28 3.28h-3.27v-3.28a3.28 3.28 0 013.27-3.28z"/>
    <path fill="#000000" d="M75.86 23.41a1.65 1.65 0 01-1.78 1.78c-1.06 0-1.75-.72-1.75-1.78v-8.86h-5.89c-1.06 0-1.78-.69-1.78-1.75 0-1.06.72-1.78 1.78-1.78h5.9V5.13c0-1.06.68-1.78 1.74-1.78 1.06 0 1.78.72 1.78 1.78v5.89h5.9c1.04 0 1.74.72 1.74 1.78 0 1.06-.7 1.75-1.75 1.75h-5.9v8.86zm33.25-8.86c-1.03 0-1.7-.67-1.7-1.7 0-1.04.67-1.71 1.7-1.71h14.1c1.01 0 1.68.67 1.68 1.7 0 1.04-.67 1.71-1.69 1.71h-14.1zm-59.67 0c0 5.46 4.33 9.87 9.79 9.87 5.41 0 9.73-4.41 9.73-9.87 0-5.46-4.32-9.87-9.73-9.87-5.46 0-9.8 4.41-9.8 9.87zm9.8-6.28a6.29 6.29 0 110 12.57 6.29 6.29 0 010-12.57zm35.01 16.15c-5.47 0-9.8-4.4-9.8-9.87 0-5.46 4.33-9.87 9.8-9.87 5.16 0 9.49 4 9.79 9.21.02.52-.13 1.02-.46 1.36-.32.35-.78.53-1.28.53h-14.4a6.3 6.3 0 006.35 5.05c1.94 0 3.72-.85 4.95-2.33a1.7 1.7 0 012.56-.12 1.7 1.7 0 01-.08 2.29 9.8 9.8 0 01-7.43 3.75zm-6.35-11.3h12.7a6.3 6.3 0 00-6.35-5.13 6.3 6.3 0 00-6.35 5.14z"/>
  </g>
</svg>
